<svg id="Layer_1" data-name="Layer 1" xmlns="http://www.w3.org/2000/svg" width="1338" height="439" viewBox="0 0 1338 439"><path d="M189.6714,268.6475a43.2942,43.2942,0,0,1-22.4-5.84,42.7626,42.7626,0,0,1-15.68-15.92,46.1629,46.1629,0,0,1-5.92-22.72v-72.96a7.8564,7.8564,0,0,1,2.32-5.9209,8.1261,8.1261,0,0,1,14,5.9209v43.2a41.175,41.175,0,0,1,13.52-10.6406,40.4742,40.4742,0,0,1,38.32,1.92,41.5642,41.5642,0,0,1,14.64,15.84,47.1868,47.1868,0,0,1,5.36,22.6407,44.4944,44.4944,0,0,1-5.84,22.72,43.0617,43.0617,0,0,1-38.32,21.76Zm0-14.3995a27.3047,27.3047,0,0,0,14.56-3.92,28.3272,28.3272,0,0,0,10.16-10.8008,31.5033,31.5033,0,0,0,3.76-15.3593,30.9394,30.9394,0,0,0-3.76-15.36,28.676,28.676,0,0,0-10.16-10.64,28.8515,28.8515,0,0,0-29.04,0,27.8438,27.8438,0,0,0-10.16,10.64,31.4452,31.4452,0,0,0-3.68,15.36,32.0191,32.0191,0,0,0,3.68,15.3593,27.3864,27.3864,0,0,0,24.64,14.7207Z" style="fill:#3c73b7"/><path d="M297.83,268.6475a45.22,45.22,0,0,1-22.88-5.68,41.1306,41.1306,0,0,1-15.6-15.68,49.5672,49.5672,0,0,1,0-46.08,41.1671,41.1671,0,0,1,15.6-15.6807,48.6023,48.6023,0,0,1,45.6,0A41.2171,41.2171,0,0,1,336.15,201.208a49.884,49.884,0,0,1,.08,46.08,40.6131,40.6131,0,0,1-15.521,15.68A45.2262,45.2262,0,0,1,297.83,268.6475Zm0-14.3995a28.059,28.059,0,0,0,14.72-3.84,26.859,26.859,0,0,0,10-10.56,32.357,32.357,0,0,0,3.6016-15.52,32.8465,32.8465,0,0,0-3.6016-15.6006,26.7243,26.7243,0,0,0-10-10.64,30.1338,30.1338,0,0,0-29.44,0,27.2742,27.2742,0,0,0-10.08,10.64,32.2538,32.2538,0,0,0-3.68,15.6006,31.7749,31.7749,0,0,0,3.68,15.52,27.4191,27.4191,0,0,0,10.08,10.56A28.05,28.05,0,0,0,297.83,254.248Z" style="fill:#3c73b7"/><path d="M405.8281,268.6475a45.221,45.221,0,0,1-22.88-5.68,41.1344,41.1344,0,0,1-15.6005-15.68,49.571,49.571,0,0,1,0-46.08,41.1709,41.1709,0,0,1,15.6005-15.6807,48.6025,48.6025,0,0,1,45.6,0,41.2114,41.2114,0,0,1,15.6,15.6807,49.884,49.884,0,0,1,.08,46.08,40.6077,40.6077,0,0,1-15.52,15.68A45.2283,45.2283,0,0,1,405.8281,268.6475Zm0-14.3995a28.0606,28.0606,0,0,0,14.72-3.84,26.8582,26.8582,0,0,0,10-10.56,32.3577,32.3577,0,0,0,3.6-15.52,32.8473,32.8473,0,0,0-3.6-15.6006,26.7235,26.7235,0,0,0-10-10.64,30.1331,30.1331,0,0,0-29.44,0,27.2713,27.2713,0,0,0-10.08,10.64,32.2486,32.2486,0,0,0-3.6806,15.6006,31.77,31.77,0,0,0,3.6806,15.52,27.4162,27.4162,0,0,0,10.08,10.56A28.0454,28.0454,0,0,0,405.8281,254.248Z" style="fill:#3c73b7"/><path d="M481.9863,268.0078a7.4172,7.4172,0,0,1-7.84-7.84v-109.28a7.8445,7.8445,0,1,1,15.68,0v109.28a7.4186,7.4186,0,0,1-7.84,7.84Zm7.52-32-9.92-10.88,49.12-43.84a7.0749,7.0749,0,0,1,5.36-2.08,7.98,7.98,0,0,1,7.12,7.84,7.4358,7.4358,0,0,1-2.5605,5.12Zm49.6005,31.2a7.7967,7.7967,0,0,1-5.6806,1.84,7.1868,7.1868,0,0,1-5.1992-2.8l-32.48-40.16,11.2-10.5606,33.28,40.961a7.5656,7.5656,0,0,1,1.84,5.5195A7.4265,7.4265,0,0,1,539.1064,267.208Z" style="fill:#3c73b7"/><path d="M620.0635,268.0078a8.1884,8.1884,0,0,1-5.92-2q-2.0815-1.998-2.08-6V188.4883a7.2493,7.2493,0,0,1,8-8q3.9975,0,6,2,1.998,2.0024,2,6v71.5195a8.203,8.203,0,0,1-2,5.92Q624.061,268.0093,620.0635,268.0078Zm-.16-54.72a31.9238,31.9238,0,0,1,4.72-17.2,34.59,34.59,0,0,1,12.72-12.08,35.4218,35.4218,0,0,1,17.6006-4.4805q9.5991,0,14.3193,3.12,4.7182,3.12,3.6006,7.44a6.1507,6.1507,0,0,1-1.84,3.4394,6.3562,6.3562,0,0,1-3.12,1.5206,9.4416,9.4416,0,0,1-3.84-.16,44.91,44.91,0,0,0-18.4-.32q-8.1606,1.7637-12.88,6.5605a16.6268,16.6268,0,0,0-4.72,12.16Z" style="fill:#3c73b7"/><path d="M724.543,268.6475a48.1238,48.1238,0,0,1-23.6-5.68,41.5152,41.5152,0,0,1-16.16-15.68,44.6668,44.6668,0,0,1-5.84-22.96,47.059,47.059,0,0,1,5.52-23.12,40.3778,40.3778,0,0,1,15.2793-15.6807,43.73,43.73,0,0,1,22.4-5.68q12.48,0,21.4394,5.52a35.9877,35.9877,0,0,1,13.6807,15.1992,50.3647,50.3647,0,0,1,4.72,22.32,6.7009,6.7009,0,0,1-2.08,5.04,7.3045,7.3045,0,0,1-5.28,2H690.1436v-12.8h64l-6.5606,4.48a34.2944,34.2944,0,0,0-3.1992-14.3193,23.3309,23.3309,0,0,0-22.24-13.6807,29.1436,29.1436,0,0,0-15.6006,4,25.7838,25.7838,0,0,0-9.84,10.96,35.8179,35.8179,0,0,0-3.3593,15.7607,30.5985,30.5985,0,0,0,4,15.68,29.1792,29.1792,0,0,0,11.04,10.88,32.1191,32.1191,0,0,0,16.1592,4,30.3374,30.3374,0,0,0,10.16-1.84,31.5377,31.5377,0,0,0,8.4-4.24,9.0869,9.0869,0,0,1,5.2-1.84,7.007,7.007,0,0,1,4.88,1.68,7.5879,7.5879,0,0,1,2.88,5.28,5.68,5.68,0,0,1-2.56,4.96,44.2655,44.2655,0,0,1-13.5205,7.04A48.3277,48.3277,0,0,1,724.543,268.6475Z" style="fill:#3c73b7"/><path d="M858.4609,305.4482a8.12,8.12,0,0,1-6-2.32,7.9186,7.9186,0,0,1-2.32-5.84v-43.2a39.3627,39.3627,0,0,1-30.88,14.56,38.5045,38.5045,0,0,1-20.96-5.84,41.4732,41.4732,0,0,1-14.64-15.84,47.1351,47.1351,0,0,1-5.36-22.64,44.4819,44.4819,0,0,1,5.84-22.7207,43.2094,43.2094,0,0,1,15.84-15.92,44.11,44.11,0,0,1,60.6406,15.92,44.5007,44.5007,0,0,1,5.84,22.7207v72.96a8.0788,8.0788,0,0,1-2.24,5.84A7.666,7.666,0,0,1,858.4609,305.4482Zm-36-51.2a27.3045,27.3045,0,0,0,14.56-3.92,27.88,27.88,0,0,0,10.08-10.7207,31.5752,31.5752,0,0,0,3.6806-15.2793,31.9243,31.9243,0,0,0-3.6806-15.44,27.9115,27.9115,0,0,0-10.08-10.72,28.8515,28.8515,0,0,0-29.04,0,28.28,28.28,0,0,0-10.2393,10.72,31.3625,31.3625,0,0,0-3.7607,15.44,31.0213,31.0213,0,0,0,3.7607,15.2793,28.2475,28.2475,0,0,0,10.2393,10.7207A27.4182,27.4182,0,0,0,822.4609,254.248Z" style="fill:#3c73b7"/><path d="M932.06,268.8076a40.8246,40.8246,0,0,1-19.76-4.72,34.0323,34.0323,0,0,1-13.7607-13.84q-5.0391-9.12-5.04-22.4V188.4883a8.1613,8.1613,0,1,1,16.32,0v39.3594q0,8.9633,3.36,14.8a20.9079,20.9079,0,0,0,9.12,8.6406,29.2487,29.2487,0,0,0,12.96,2.8,26.666,26.666,0,0,0,12.2392-2.72,22.5953,22.5953,0,0,0,8.5606-7.36,17.9065,17.9065,0,0,0,3.2-10.4h10.08a33.7246,33.7246,0,0,1-4.8808,17.92A35.1727,35.1727,0,0,1,951.18,264.168,38.8724,38.8724,0,0,1,932.06,268.8076Zm35.3593-.8a7.9318,7.9318,0,0,1-8.1591-8.16V188.4883a7.8564,7.8564,0,0,1,2.3193-5.9209,8.1257,8.1257,0,0,1,14,5.9209v71.3594a8.0687,8.0687,0,0,1-2.2393,5.84A7.8532,7.8532,0,0,1,967.4189,268.0078Z" style="fill:#3c73b7"/><path d="M1045.4971,268.6475a48.1238,48.1238,0,0,1-23.6-5.68,41.5152,41.5152,0,0,1-16.16-15.68,44.6668,44.6668,0,0,1-5.84-22.96,47.059,47.059,0,0,1,5.52-23.12,40.3778,40.3778,0,0,1,15.2793-15.6807,43.73,43.73,0,0,1,22.4-5.68q12.48,0,21.4394,5.52a35.9877,35.9877,0,0,1,13.6807,15.1992,50.3647,50.3647,0,0,1,4.72,22.32,6.7009,6.7009,0,0,1-2.08,5.04,7.3045,7.3045,0,0,1-5.28,2h-64.4794v-12.8h64l-6.5606,4.48a34.2944,34.2944,0,0,0-3.1992-14.3193,23.3309,23.3309,0,0,0-22.24-13.6807,29.1436,29.1436,0,0,0-15.6006,4,25.7838,25.7838,0,0,0-9.84,10.96,35.8179,35.8179,0,0,0-3.3593,15.7607,30.5985,30.5985,0,0,0,4,15.68,29.1792,29.1792,0,0,0,11.04,10.88,32.1191,32.1191,0,0,0,16.1592,4,30.3374,30.3374,0,0,0,10.16-1.84,31.5377,31.5377,0,0,0,8.4-4.24,9.0869,9.0869,0,0,1,5.2-1.84,7.007,7.007,0,0,1,4.88,1.68,7.5879,7.5879,0,0,1,2.88,5.28,5.68,5.68,0,0,1-2.56,4.96,44.2655,44.2655,0,0,1-13.5205,7.04A48.3277,48.3277,0,0,1,1045.4971,268.6475Z" style="fill:#3c73b7"/><path d="M1135.5762,268.6475a60.5,60.5,0,0,1-20.7207-3.4395q-9.52-3.44-14.8-8.72a6.9662,6.9662,0,0,1-2-5.8408,7.6948,7.6948,0,0,1,3.12-5.3594,8.3546,8.3546,0,0,1,6.32-2.16,8.6652,8.6652,0,0,1,5.3594,2.8q2.7188,3.0411,8.7207,5.68a32.8056,32.8056,0,0,0,13.3593,2.6406q9.2784,0,14.16-3.04,4.8793-3.0381,5.04-7.84.1582-4.8-4.56-8.32-4.7213-3.5172-17.2-5.76-16.1631-3.1992-23.44-9.6006a20.0841,20.0841,0,0,1-7.2793-15.68,19.5067,19.5067,0,0,1,4.8-13.5195,29.1092,29.1092,0,0,1,12.32-8,46.9609,46.9609,0,0,1,15.68-2.6406,48.8305,48.8305,0,0,1,18.72,3.36,31.9363,31.9363,0,0,1,12.96,9.28,7.3877,7.3877,0,0,1,2.08,5.3594,6.2014,6.2014,0,0,1-2.72,4.72,7.8344,7.8344,0,0,1-6.08,1.12,11.4375,11.4375,0,0,1-5.92-2.88,21.83,21.83,0,0,0-8.6406-5.28,36.2314,36.2314,0,0,0-10.72-1.4394,26.8157,26.8157,0,0,0-11.92,2.4q-4.8823,2.3994-4.88,7.039a9.2652,9.2652,0,0,0,1.52,5.2q1.5191,2.3219,6,4.16a76.8741,76.8741,0,0,0,13.12,3.6006q12,2.3994,18.96,6.0791,6.961,3.6827,10,8.5605a20.9059,20.9059,0,0,1,3.04,11.28,23.5213,23.5213,0,0,1-3.92,13.2793,26.9447,26.9447,0,0,1-11.52,9.44Q1146.9352,268.6495,1135.5762,268.6475Z" style="fill:#3c73b7"/><path d="M1186.9346,197.4482a7.6988,7.6988,0,0,1-5.4395-1.9209,6.2559,6.2559,0,0,1-2.08-4.8,6.6322,6.6322,0,0,1,2.08-5.12,7.7027,7.7027,0,0,1,5.4395-1.92h36.96a7.7085,7.7085,0,0,1,5.44,1.92,6.6425,6.6425,0,0,1,2.08,5.12,6.266,6.266,0,0,1-2.08,4.8,7.7045,7.7045,0,0,1-5.44,1.9209Zm35.52,70.56a26.2159,26.2159,0,0,1-14.4-4.08,28.6071,28.6071,0,0,1-10.08-11.12,33.6465,33.6465,0,0,1-3.68-15.84v-76.32a8.0026,8.0026,0,1,1,16,0v76.32a16.4139,16.4139,0,0,0,3.52,10.72,10.7523,10.7523,0,0,0,8.6406,4.32h5.4394a6.302,6.302,0,0,1,4.88,2.24,8.3308,8.3308,0,0,1,2,5.76,7.2071,7.2071,0,0,1-2.64,5.76,10.1378,10.1378,0,0,1-6.8,2.24Z" style="fill:#3c73b7"/><path d="M1286.6133,268.6475a60.5,60.5,0,0,1-20.7207-3.4395q-9.52-3.44-14.8-8.72a6.9662,6.9662,0,0,1-2-5.8408,7.6948,7.6948,0,0,1,3.12-5.3594,8.3546,8.3546,0,0,1,6.32-2.16,8.6652,8.6652,0,0,1,5.3594,2.8q2.7188,3.0411,8.7207,5.68a32.8057,32.8057,0,0,0,13.3594,2.6406q9.2783,0,14.16-3.04,4.8793-3.0381,5.04-7.84.1581-4.8-4.56-8.32-4.7213-3.5172-17.2-5.76-16.1631-3.1992-23.44-9.6006a20.0838,20.0838,0,0,1-7.2793-15.68,19.5066,19.5066,0,0,1,4.8-13.5195,29.11,29.11,0,0,1,12.32-8,46.9609,46.9609,0,0,1,15.68-2.6406,48.8305,48.8305,0,0,1,18.72,3.36,31.9367,31.9367,0,0,1,12.96,9.28,7.388,7.388,0,0,1,2.08,5.3594,6.2014,6.2014,0,0,1-2.72,4.72,7.8343,7.8343,0,0,1-6.08,1.12,11.4375,11.4375,0,0,1-5.92-2.88,21.829,21.829,0,0,0-8.6406-5.28,36.2307,36.2307,0,0,0-10.72-1.4394,26.8158,26.8158,0,0,0-11.92,2.4q-4.8823,2.3994-4.88,7.039a9.2652,9.2652,0,0,0,1.52,5.2q1.5191,2.3219,6,4.16a76.8741,76.8741,0,0,0,13.12,3.6006q12,2.3994,18.96,6.0791,6.9609,3.6827,10,8.5605a20.9067,20.9067,0,0,1,3.04,11.28,23.5213,23.5213,0,0,1-3.92,13.2793,26.9447,26.9447,0,0,1-11.52,9.44Q1297.9723,268.6495,1286.6133,268.6475Z" style="fill:#3c73b7"/><path d="M300.1338,305.4458h80.8439A193.2114,193.2114,0,0,1,207.7456,412.9912C101.0236,412.9912,14.5,326.4676,14.5,219.7456S101.0236,26.5,207.7456,26.5A193.2536,193.2536,0,0,1,381.8179,135.7258H301.663a126.0291,126.0291,0,1,0-1.5292,169.72Z" style="fill:#3c73b7"/></svg>